<svg width="471.49" height="69.861" viewBox="0 0 471.49 69.861" xml:space="preserve" xmlns="http://www.w3.org/2000/svg"><g style="fill:#fbfbfb;fill-opacity:1"><g style="fill:#fbfbfb;fill-opacity:1"><path d="M461.88 217.482 436.34 294h10.799l6.644-20.04h29.278l6.748 20.04h10.902l-9.842-29.486h-34.594l12.147-37.897 10.423 32.805h10.324l-14-41.94z" style="font-weight:500;font-size:103.823px;font-family:Exo;-inkscape-font-specification:&quot;Exo Medium&quot;;fill:#fbfbfb;fill-opacity:1;stroke-width:10.8149;stroke-linecap:square;stroke-linejoin:bevel;stroke-miterlimit:4.2" transform="translate(16.801 -197.117)scale(.90809)"/></g><g style="fill:#fbfbfb;fill-opacity:1"><path d="M416.873 267.219h-10.197L419.106 294h10.59z" style="font-weight:500;font-size:103.823px;font-family:Exo;-inkscape-font-specification:&quot;Exo Medium&quot;;fill:#fbfbfb;fill-opacity:1;stroke-width:10.8149;stroke-linecap:square;stroke-linejoin:bevel;stroke-miterlimit:4.2" transform="translate(-8.305 -197.117)scale(.90809)"/><path d="M377.162 217.482V294h10.486v-31.877h26.791a26.7 26.7 0 0 0 4.77-1.762q2.492-1.246 4.465-3.53 2.077-2.389 3.322-6.333t1.246-9.863q0-7.267-1.66-11.733-1.66-4.568-4.568-7.06a16.05 16.05 0 0 0-6.645-3.426q-3.634-.934-7.58-.934zm10.486 9.344h18.48q2.389 0 4.464.623a8.9 8.9 0 0 1 3.738 1.973q1.662 1.454 2.596 4.152.934 2.7.933 7.06 0 4.465-.933 7.372-.934 2.803-2.596 4.465a8.54 8.54 0 0 1-3.635 2.18q-2.075.518-4.566.519h-18.48z" style="font-weight:500;font-size:103.823px;font-family:Exo;-inkscape-font-specification:&quot;Exo Medium&quot;;fill:#fbfbfb;fill-opacity:1;stroke-width:10.8149;stroke-linecap:square;stroke-linejoin:bevel;stroke-miterlimit:4.2" transform="translate(-8.305 -197.117)scale(.90809)"/></g><path d="M334.837-14.595q-2.804 0-5.71.83a13.2 13.2 0 0 0-5.089 2.595q-2.283 1.765-3.736 4.88-1.35 3.115-1.35 7.683v45.475q0 5.295 1.66 8.41 1.663 3.114 4.258 4.672 2.7 1.453 5.606 1.972 2.907.415 5.504.414 5.086 0 10.38-.207 5.4-.104 10.696-.312 5.294-.312 10.07-.623v-8.617h-29.279q-2.18 0-4.152-.623-1.87-.623-3.116-2.387-1.14-1.766-1.14-5.295V28.594l33.015-.726V19.77l-33.015-.623V3.262q0-4.257 2.18-6.23t6.021-1.973h29.486v-8.617q-4.464-.208-9.343-.414a437 437 0 0 0-10.59-.313 575 575 0 0 0-12.356-.31" style="font-weight:500;font-size:103.823px;font-family:Exo;-inkscape-font-specification:&quot;Exo Medium&quot;;fill:#fbfbfb;fill-opacity:1;stroke-width:10.8149;stroke-linecap:square;stroke-linejoin:bevel;stroke-miterlimit:4.2" transform="translate(-10 13.255)scale(.90809)"/><g style="fill:#fbfbfb;fill-opacity:1"><path d="M290.365 246.752h10.383v-29.27h-10.383z" style="font-weight:500;font-size:103.823px;font-family:Exo;-inkscape-font-specification:&quot;Exo Medium&quot;;fill:#fbfbfb;fill-opacity:1;stroke-width:10.8149;stroke-linecap:square;stroke-linejoin:bevel;stroke-miterlimit:4.2" transform="translate(-4.277 -197.117)scale(.90809)"/><path d="M244.477 217.482V294h10.484v-32.809h35.404V294h10.383v-42.152h-45.787v-34.366z" style="font-weight:500;font-size:103.823px;font-family:Exo;-inkscape-font-specification:&quot;Exo Medium&quot;;fill:#fbfbfb;fill-opacity:1;stroke-width:10.8149;stroke-linecap:square;stroke-linejoin:bevel;stroke-miterlimit:4.2" transform="translate(-4.277 -197.117)scale(.90809)"/></g><path d="M182.706-14.181v9.344h22.842v67.173h10.486V-4.837h22.842v-9.344zm-90.669 0v76.517h10.487V-14.18z" style="font-weight:500;font-size:103.823px;font-family:Exo;-inkscape-font-specification:&quot;Exo Medium&quot;;fill:#fbfbfb;fill-opacity:1;stroke-width:10.8149;stroke-linecap:square;stroke-linejoin:bevel;stroke-miterlimit:4.2" transform="translate(-10 13.255)scale(.90809)"/><path d="M114.426-14.181v76.517h10.488V3.676l37.48 58.66h8.41V-14.18H160.42v58.66l-37.48-58.66z" style="font-weight:500;font-size:94.2803px;font-family:Exo;-inkscape-font-specification:&quot;Exo Medium&quot;;fill:#fbfbfb;fill-opacity:1;stroke-width:10.8149;stroke-linecap:square;stroke-linejoin:bevel;stroke-miterlimit:4.2" transform="translate(-10 13.255)scale(.90809)"/><path d="M443.465-14.181v76.517h10.486V-14.18z" style="font-weight:500;font-size:103.823px;font-family:Exo;-inkscape-font-specification:&quot;Exo Medium&quot;;fill:#fbfbfb;fill-opacity:1;stroke-width:10.8149;stroke-linecap:square;stroke-linejoin:bevel;stroke-miterlimit:4.2" transform="translate(-10 13.255)scale(.90809)"/><g style="fill:#fbfbfb;fill-opacity:1"><path d="M11.012 294H25.64l19.398-28.74L65.508 294h14.627l-26.7-37.488 26.7-39.03-14.627.143-27.248 38.188Zm0-76.518 24.158 33.92 7.32-10.259-16.85-23.66z" style="font-weight:500;font-size:143.217px;font-family:Exo;-inkscape-font-specification:&quot;Exo Medium&quot;;fill:#fbfbfb;fill-opacity:1;stroke-width:14.9185;stroke-linecap:square;stroke-linejoin:bevel;stroke-miterlimit:4.2" transform="translate(-10 -197.117)scale(.90809)"/></g></g></svg>