<?xml version="1.0" encoding="UTF-8" standalone="no"?>
<!-- Created with Inkscape (http://www.inkscape.org/) -->

<svg
   width="471.49014"
   height="69.860596"
   viewBox="0 0 471.49014 69.860596"
   version="1.1"
   id="svg1"
   xml:space="preserve"
   xmlns="http://www.w3.org/2000/svg"
   xmlns:svg="http://www.w3.org/2000/svg"><defs
     id="defs1" /><g
     id="layer1"
     transform="translate(-14.574834,-390.77533)"><g
       id="g79"
       transform="matrix(0.90808636,0,0,0.90808636,4.5752419,404.02912)"
       style="fill:#fbfbfb;fill-opacity:1"><g
         id="g78"
         transform="translate(29.513668,-231.66365)"
         style="fill:#fbfbfb;fill-opacity:1"><path
           d="M 461.88086,217.48242 436.33984,294 h 10.79883 l 6.64453,-20.03906 h 29.27735 L 489.80859,294 h 10.90235 l -9.84212,-29.48633 h -29.86101 -4.73242 l 12.14648,-37.89648 10.42315,32.80481 h 10.32422 l -13.99932,-41.93958 z"
           style="font-weight:500;font-size:103.823px;font-family:Exo;-inkscape-font-specification:'Exo Medium';fill:#fbfbfb;fill-opacity:1;stroke-width:10.8149;stroke-linecap:square;stroke-linejoin:bevel;stroke-miterlimit:4.2"
           id="path26" /></g><g
         id="g77"
         transform="translate(1.8667471,-231.66365)"
         style="fill:#fbfbfb;fill-opacity:1"><path
           d="M 416.87305,267.21875 H 406.67578 L 419.10547,294 h 10.58984 z"
           style="font-weight:500;font-size:103.823px;font-family:Exo;-inkscape-font-specification:'Exo Medium';fill:#fbfbfb;fill-opacity:1;stroke-width:10.8149;stroke-linecap:square;stroke-linejoin:bevel;stroke-miterlimit:4.2"
           id="path25" /><path
           d="M 377.16211,217.48242 V 294 h 10.48633 v -26.78125 -5.0957 h 26.79101 c 1.59002,-0.41521 3.17952,-1.00128 4.76953,-1.76172 1.66117,-0.83059 3.14976,-2.00852 4.46485,-3.53125 1.3843,-1.59195 2.49168,-3.70186 3.32226,-6.33203 0.83059,-2.63018 1.2461,-5.91802 1.2461,-9.86328 0,-4.84507 -0.55271,-8.75617 -1.66016,-11.73243 -1.10744,-3.04546 -2.63033,-5.39938 -4.56836,-7.06054 -1.93803,-1.66117 -4.15278,-2.80285 -6.64453,-3.42578 -2.42253,-0.62294 -4.9499,-0.9336 -7.58008,-0.9336 z m 10.48633,9.34375 h 18.48047 c 1.59194,0 3.07858,0.20776 4.46289,0.62305 1.3843,0.34608 2.63083,1.00365 3.73828,1.97265 1.10744,0.96902 1.97276,2.35275 2.5957,4.15235 0.62294,1.7996 0.9336,4.1535 0.93359,7.06055 10e-6,2.97624 -0.31065,5.43306 -0.93359,7.37109 -0.62294,1.86881 -1.48826,3.3574 -2.5957,4.46484 -1.03823,1.03823 -2.25046,1.7644 -3.63477,2.17969 -1.3843,0.34608 -2.90525,0.51953 -4.5664,0.51953 h -18.48047 z"
           style="font-weight:500;font-size:103.823px;font-family:Exo;-inkscape-font-specification:'Exo Medium';fill:#fbfbfb;fill-opacity:1;stroke-width:10.8149;stroke-linecap:square;stroke-linejoin:bevel;stroke-miterlimit:4.2"
           id="path24" /></g><path
         d="m 334.83723,-14.595286 c -1.86882,0 -3.77291,0.27636 -5.71094,0.83008 -1.86881,0.48451 -3.56516,1.34983 -5.08789,2.5957 -1.52274,1.1766612 -2.76732,2.8024512 -3.73633,4.8789112 -0.8998,2.07646 -1.34961,4.63813 -1.34961,7.68359 V 46.867604 c 0,3.52998 0.55271,6.3337 1.66016,8.41016 1.10744,2.07646 2.52743,3.63364 4.25781,4.67187 1.7996,0.96902 3.66744,1.62658 5.60547,1.97266 1.93802,0.27686 3.77353,0.41406 5.5039,0.41406 3.39155,0 6.85089,-0.0686 10.38086,-0.20703 3.5992,-0.0692 7.16534,-0.17407 10.69532,-0.3125 3.52996,-0.20764 6.88641,-0.4154 10.07031,-0.62305 v -8.61718 h -29.2793 c -1.45352,0 -2.83725,-0.20776 -4.15234,-0.62305 -1.24588,-0.41529 -2.28465,-1.21006 -3.11524,-2.38672 -0.76136,-1.17666 -1.14062,-2.9416 -1.14062,-5.29492 v -15.67774 l 33.01562,-0.72656 v -8.09765 l -33.01562,-0.62305 V 3.2621352 c 0,-2.83780988 0.72617,-4.91538 2.17969,-6.23047 1.45351,-1.31507 3.46052,-1.97265 6.02148,-1.97265 h 29.48633 v -8.6171912 c -2.97626,-0.13843 -6.09064,-0.27563 -9.34375,-0.41406 -3.25312,-0.13843 -6.78301,-0.24329 -10.58985,-0.3125 -3.73761,-0.13843 -7.85648,-0.24133 -12.35546,-0.31055 z"
         style="font-weight:500;font-size:103.823px;font-family:Exo;-inkscape-font-specification:'Exo Medium';fill:#fbfbfb;fill-opacity:1;stroke-width:10.8149;stroke-linecap:square;stroke-linejoin:bevel;stroke-miterlimit:4.2"
         id="path27" /><g
         id="g76"
         transform="translate(6.3018462,-231.66365)"
         style="fill:#fbfbfb;fill-opacity:1"><path
           d="m 290.36523,246.75195 h 10.38282 v -29.26953 h -10.38282 z"
           style="font-weight:500;font-size:103.823px;font-family:Exo;-inkscape-font-specification:'Exo Medium';fill:#fbfbfb;fill-opacity:1;stroke-width:10.8149;stroke-linecap:square;stroke-linejoin:bevel;stroke-miterlimit:4.2"
           id="path29" /><path
           d="M 244.47656,217.48242 V 294 h 10.48438 v -32.80859 h 35.40429 V 294 h 10.38282 v -42.15234 h -45.78711 v -5.09571 -29.26953 z"
           style="font-weight:500;font-size:103.823px;font-family:Exo;-inkscape-font-specification:'Exo Medium';fill:#fbfbfb;fill-opacity:1;stroke-width:10.8149;stroke-linecap:square;stroke-linejoin:bevel;stroke-miterlimit:4.2"
           id="path28" /></g><path
         d="m 182.70592,-14.181226 v 9.3437512 h 22.84179 V 62.336354 h 10.48633 V -4.8374748 h 22.8418 v -9.3437512 z"
         style="font-weight:500;font-size:103.823px;font-family:Exo;-inkscape-font-specification:'Exo Medium';fill:#fbfbfb;fill-opacity:1;stroke-width:10.8149;stroke-linecap:square;stroke-linejoin:bevel;stroke-miterlimit:4.2"
         id="path35" /><path
         d="m 92.037331,-14.181226 v 76.51758 h 10.486319 v -76.51758 z"
         style="font-weight:500;font-size:103.823px;font-family:Exo;-inkscape-font-specification:'Exo Medium';fill:#fbfbfb;fill-opacity:1;stroke-width:10.8149;stroke-linecap:square;stroke-linejoin:bevel;stroke-miterlimit:4.2"
         id="path32" /><path
         d="m 114.42622,-14.181016 v 76.51737 h 10.48737 V 3.6750552 l 37.48008,58.6612988 h 8.40969 v -76.51737 h -10.38198 v 58.65916 l -37.48009,-58.65916 z"
         style="font-weight:500;font-size:94.2803px;font-family:Exo;-inkscape-font-specification:'Exo Medium';fill:#fbfbfb;fill-opacity:1;stroke-width:10.8149;stroke-linecap:square;stroke-linejoin:bevel;stroke-miterlimit:4.2"
         id="path79" /><path
         d="m 443.46462,-14.181226 v 76.51758 h 10.48632 v -76.51758 z"
         style="font-weight:500;font-size:103.823px;font-family:Exo;-inkscape-font-specification:'Exo Medium';fill:#fbfbfb;fill-opacity:1;stroke-width:10.8149;stroke-linecap:square;stroke-linejoin:bevel;stroke-miterlimit:4.2"
         id="path32-9" /><g
         id="g74"
         transform="translate(0,-231.66365)"
         style="fill:#fbfbfb;fill-opacity:1"><path
           d="M 11.011719,294 H 25.640625 L 45.039062,265.25977 65.507812,294 H 80.134766 L 53.435547,256.51172 80.134766,217.48242 65.507812,217.625 38.259765,255.8125 Z"
           style="font-weight:500;font-size:143.217px;font-family:Exo;-inkscape-font-specification:'Exo Medium';fill:#fbfbfb;fill-opacity:1;stroke-width:14.9185;stroke-linecap:square;stroke-linejoin:bevel;stroke-miterlimit:4.2"
           id="path31" /><path
           d="m 11.011719,217.48242 24.158203,33.91992 7.320212,-10.25911 -16.849509,-23.66081 z"
           style="font-weight:500;font-size:143.217px;font-family:Exo;-inkscape-font-specification:'Exo Medium';fill:#fbfbfb;fill-opacity:1;stroke-width:14.9185;stroke-linecap:square;stroke-linejoin:bevel;stroke-miterlimit:4.2"
           id="path30" /></g></g></g></svg>
